<?xml version="1.0" encoding="UTF-8" standalone="no"?>
<svg width="100px" height="100px" viewBox="0 0 100 100" version="1.1" xmlns="http://www.w3.org/2000/svg" xmlns:xlink="http://www.w3.org/1999/xlink" xmlns:sketch="http://www.bohemiancoding.com/sketch/ns">
    <!-- Generator: Sketch 3.4.4 (17249) - http://www.bohemiancoding.com/sketch -->
    <title>logo-white</title>
    <desc>Created with Sketch.</desc>
    <defs></defs>
    <g id="Page-1" stroke="none" stroke-width="1" fill="none" fill-rule="evenodd" sketch:type="MSPage">
        <g id="logo-white" sketch:type="MSArtboardGroup" fill="#FFFFFF">
            <path d="M94.0715102,33.9303231 L94.0715102,3.8530685 C94.0715102,2.42218103 93.0698889,1.4205598 91.6390015,1.4205598 L8.64752824,1.4205598 C7.21664077,1.4205598 5.92884205,2.42218103 5.92884205,3.8530685 L5.92884205,34.0447941 C5.92884205,44.8909211 6.98769877,78.9746606 48.9985549,99.3218805 C49.3705856,99.4935869 49.7712341,99.5794402 50.1718826,99.5794402 C50.5439133,99.5794402 50.8873263,99.4935869 51.2307393,99.3218805 C94.5866296,78.6312476 94.0715102,44.8909211 94.0715102,33.9303231 L94.0715102,33.9303231 Z M13.6556344,15.8725232 L18.7782115,13.611721 L13.6556344,11.4081543 L13.6556344,9.11873439 L22.5271367,12.8676596 L22.5271367,14.3557825 L13.6556344,18.1619432 L13.6556344,15.8725232 L13.6556344,15.8725232 Z M30.5401065,18.5912094 L30.5401065,20.0220969 L21.9547817,20.0220969 L21.9547817,18.5912094 L30.5401065,18.5912094 L30.5401065,18.5912094 Z M50.2863536,94.7430406 C50.2577358,94.7430406 50.2291181,94.7716583 50.2005003,94.7716583 C44.305244,91.8526479 39.0395781,88.5329889 34.4321204,84.8126815 C33.6594412,84.183091 32.886762,83.5248828 32.1427005,82.8952923 C25.0168809,76.6852407 19.636744,69.4449501 16.0022898,61.2602738 C13.3694569,55.3077819 12.0244227,49.6414675 11.3662144,44.9195389 L41.4148513,44.9195389 L41.4148513,56.8245226 C41.4148513,58.3412633 43.2177695,59.1711781 44.3624795,58.1695568 L50.1718826,53.1328329 L50.2863536,53.3903927 L50.2863536,94.7430406 L50.2863536,94.7430406 Z M59.3581802,58.6274408 L55.8668147,60.1727993 L51.0304151,49.35529 L43.732889,55.6511949 L43.732889,55.6511949 L43.732889,44.9195389 L43.732889,29.2370122 L62.8495456,47.8671671 L55.0941355,47.8099316 L59.3581802,58.6274408 L59.3581802,58.6274408 Z M81.9375844,66.9552059 L76.729154,66.9552059 L73.9818501,69.7883631 C74.2966453,70.2748648 74.4683518,70.8758376 74.4683518,71.505428 C74.4683518,73.2797285 73.0374644,74.710616 71.2631639,74.710616 C69.4888634,74.710616 68.057976,73.2797285 68.057976,71.505428 C68.057976,69.7311276 69.4888634,68.3002401 71.2631639,68.3002401 C71.8927544,68.3002401 72.4651094,68.4719466 72.9516111,68.7867419 L75.8992393,65.7532604 C76.042328,65.6101717 76.2140345,65.5243184 76.4143588,65.5243184 L82.7102637,65.5243184 C82.4813217,66.0108202 82.1951442,66.4973219 81.9375844,66.9552059 L81.9375844,66.9552059 Z M84.6848884,61.5178335 C84.6276529,61.6036868 84.5990351,61.7181578 84.5417996,61.804011 L83.1109121,61.804011 L80.8501099,64.1506665 C80.7070212,64.2937552 80.5353147,64.3796085 80.3349905,64.3796085 L74.1821743,64.3796085 C74.0104678,64.3796085 73.8387613,64.322373 73.6956726,64.1792842 L72.0358431,62.6625435 L69.8036587,62.6625435 C69.5174812,64.1220487 68.2296825,65.2381409 66.684324,65.2381409 C64.9100235,65.2381409 63.4791361,63.8072535 63.4791361,62.032953 C63.4791361,60.2586525 64.9100235,58.8277651 66.684324,58.8277651 C68.172447,58.8277651 69.4030102,59.858004 69.7750409,61.2030383 L72.3220206,61.2030383 C72.4937271,61.2030383 72.6654336,61.2602738 72.8085224,61.4033625 L74.4683518,62.9201032 L80.048813,62.9201032 L82.3096152,60.5734478 C82.4527039,60.430359 82.6244104,60.3445058 82.8247346,60.3445058 L85.1713901,60.3445058 C84.9996836,60.7451543 84.8565949,61.1458028 84.6848884,61.5178335 L84.6848884,61.5178335 Z M85.5148031,59.5145911 L81.8517312,59.5145911 L79.7340177,61.6036868 C79.590929,61.7467755 79.4192225,61.804011 79.2188982,61.804011 L75.3555021,61.804011 C75.1837956,61.804011 74.9834713,61.7467755 74.8690003,61.6036868 L72.0072254,58.8850006 C71.8641366,58.7419118 71.7782834,58.5702053 71.7782834,58.3698811 L71.7782834,55.9946079 C70.3187782,55.6798126 69.2313037,54.3920139 69.2313037,52.8752732 C69.2313037,51.1009727 70.6621912,49.6700853 72.4364916,49.6700853 C74.2107921,49.6700853 75.6416796,51.1009727 75.6416796,52.8752732 C75.6416796,54.3633962 74.6114406,55.6225771 73.2091709,55.9659901 L73.2091709,58.0550858 L75.6416796,60.3731235 L78.9327207,60.3731235 L81.0504342,58.2840278 C81.1935229,58.1409391 81.3652294,58.0837036 81.5655537,58.0837036 L86.0585403,58.0837036 C85.8582161,58.5702053 85.6865096,59.0280893 85.5148031,59.5145911 L85.5148031,59.5145911 Z M89.063404,44.8909211 C81.5369359,44.8909211 71.2059284,44.8909211 63.0498698,44.9195389 L50.0574116,32.2991114 L50.1718826,6.02801745 L89.521288,6.02801745 L89.521288,33.9589409 L89.521288,34.3023538 C89.7788477,36.8779513 89.5785235,40.5410232 89.063404,44.8909211 Z M73.1805531,10.7785639 L73.1805531,13.1824548 L72.3506384,13.1824548 C70.6621912,13.1538371 69.3743924,13.9837518 68.0865937,14.985373 C67.3139145,15.5863457 63.7939313,18.3050319 62.8209278,19.0777112 C61.8765421,19.8217727 60.9321564,20.3082744 60.9321564,22.3401346 C60.9321564,23.7710221 61.5045114,24.2002883 62.5061326,24.4292303 C63.6794603,24.7154078 66.4839997,23.6851688 67.5714742,23.4276091 C69.3457747,22.9697251 71.7496656,23.2272848 73.0374644,23.3989913 C71.7496656,23.8282576 67.943505,26.060442 66.3695288,27.9205957 C63.9370201,30.8109884 62.9067811,34.0734119 62.5061326,37.5075418 L78.9899562,37.5075418 C77.873864,35.7904768 77.301509,33.9017054 77.4445978,32.2132581 C77.644922,30.0383092 79.1044272,28.1495377 80.048813,26.289384 C82.3668507,21.7105441 81.5941714,17.045851 78.8754852,14.1268405 C76.7577718,11.8660383 73.1805531,10.7785639 73.1805531,10.7785639 Z M41.214527,76.8283294 C41.443469,76.7710939 41.3003803,75.7980905 41.3003803,75.3688242 C41.2717625,75.1398822 40.6707898,73.9665545 35.4337417,62.6339257 L34.6896802,62.719779 L36.0060967,61.68954 C36.1491854,61.5464513 36.2064209,61.3747448 36.1491854,61.2030383 C36.1205677,61.0313318 35.9774789,60.9168608 35.8916257,60.8596253 L34.7469157,60.773772 L35.3478884,60.5734478 L39.6119331,50.042116 C39.5833153,49.927645 39.5546976,49.8417918 39.5260798,49.7845563 C39.3257556,49.8990273 39.3257556,49.8704095 39.2971378,49.927645 C39.0681958,50.3569113 38.2668989,51.5874745 37.5228374,52.8466554 C36.3208919,54.9357512 34.7755334,57.8261438 34.6610624,58.1981746 C34.4893559,58.6560586 33.9170009,60.1155638 33.7739122,60.6879188 L33.7452945,60.8596253 L33.4877347,61.002714 L33.3160282,61.002714 L20.1518635,58.4843521 C20.1518635,58.4843521 20.0660102,59.0853248 21.3251912,59.4287378 C22.6129899,59.7721508 32.085465,61.918482 32.085465,61.918482 L31.4844922,62.1188063 L30.3397823,62.6911612 C30.2253113,62.8628677 30.0536048,63.2062807 30.139458,63.521076 C30.253929,64.1220487 30.597342,64.207902 30.7976663,64.207902 C30.940755,64.207902 31.0838438,64.1506665 31.169697,64.093431 L31.8851407,63.8072535 L32.199936,63.6927825 L32.199936,64.0648132 L32.199936,82.8952923 C32.9439975,83.5535005 33.7166767,84.183091 34.4893559,84.8126815 L34.0314719,63.4638405 L41.214527,76.8283294 Z M72.4364916,54.6495737 C73.4164107,54.6495737 74.2107921,53.8551923 74.2107921,52.8752732 C74.2107921,51.8953541 73.4164107,51.1009727 72.4364916,51.1009727 C71.4565725,51.1009727 70.6621912,51.8953541 70.6621912,52.8752732 C70.6621912,53.8551923 71.4565725,54.6495737 72.4364916,54.6495737 Z M71.2917816,73.2511108 C72.2717007,73.2511108 73.0660821,72.4567294 73.0660821,71.4768103 C73.0660821,70.4968912 72.2717007,69.7025098 71.2917816,69.7025098 C70.3118626,69.7025098 69.5174812,70.4968912 69.5174812,71.4768103 C69.5174812,72.4567294 70.3118626,73.2511108 71.2917816,73.2511108 Z M66.7129417,63.8072535 C67.6928608,63.8072535 68.4872422,63.0128721 68.4872422,62.032953 C68.4872422,61.0530339 67.6928608,60.2586525 66.7129417,60.2586525 C65.7330227,60.2586525 64.9386413,61.0530339 64.9386413,62.032953 C64.9386413,63.0128721 65.7330227,63.8072535 66.7129417,63.8072535 Z" id="Shape" sketch:type="MSShapeGroup"></path>
        </g>
    </g>
</svg>